<svg width="20" height="20" viewBox="0 0 20 20" fill="none" xmlns="http://www.w3.org/2000/svg">
<path d="M3.33342 11.6654L4.64562 16.9142C4.68252 17.0618 4.70098 17.1356 4.72281 17.2001C4.93605 17.8296 5.50301 18.2723 6.16552 18.3265C6.23333 18.332 6.30941 18.332 6.46157 18.332C6.65211 18.332 6.74739 18.332 6.82764 18.3243C7.62091 18.2473 8.24869 17.6195 8.32563 16.8263C8.33342 16.746 8.33342 16.6507 8.33342 16.4602V4.58204M15.4167 11.2487C17.0276 11.2487 18.3334 9.94287 18.3334 8.33204C18.3334 6.72121 17.0276 5.41537 15.4167 5.41537M8.54175 4.58204H5.41675C3.34568 4.58204 1.66675 6.26097 1.66675 8.33204C1.66675 10.4031 3.34568 12.082 5.41675 12.082H8.54175C10.0138 12.082 11.8145 12.8711 13.2037 13.6284C14.0141 14.0702 14.4193 14.2911 14.6847 14.2586C14.9308 14.2285 15.1169 14.118 15.2612 13.9163C15.4167 13.6988 15.4167 13.2637 15.4167 12.3935V4.27061C15.4167 3.40037 15.4167 2.96525 15.2612 2.74778C15.1169 2.54612 14.9308 2.43562 14.6847 2.40548C14.4193 2.37297 14.0141 2.59387 13.2037 3.03567C11.8145 3.79297 10.0138 4.58204 8.54175 4.58204Z" stroke="#007AFF" stroke-width="1.66667" stroke-linecap="round" stroke-linejoin="round"/>
</svg>
