<svg width="20" height="20" viewBox="0 0 20 20" fill="none" xmlns="http://www.w3.org/2000/svg">
<path d="M16.6668 4.16669C16.6668 5.5474 13.6821 6.66669 10.0002 6.66669C6.31826 6.66669 3.3335 5.5474 3.3335 4.16669M16.6668 4.16669C16.6668 2.78598 13.6821 1.66669 10.0002 1.66669C6.31826 1.66669 3.3335 2.78598 3.3335 4.16669M16.6668 4.16669V15.8334C16.6668 17.2141 13.6821 18.3334 10.0002 18.3334C6.31826 18.3334 3.3335 17.2141 3.3335 15.8334V4.16669M16.6668 8.05552C16.6668 9.43623 13.6821 10.5555 10.0002 10.5555C6.31826 10.5555 3.3335 9.43623 3.3335 8.05552M16.6668 11.9417C16.6668 13.3224 13.6821 14.4417 10.0002 14.4417C6.31826 14.4417 3.3335 13.3224 3.3335 11.9417" stroke="white" stroke-width="1.66667" stroke-linecap="round" stroke-linejoin="round"/>
</svg>
