<svg width="20" height="20" viewBox="0 0 20 20" fill="none" xmlns="http://www.w3.org/2000/svg">
<path d="M9.99817 7.4969V10.8302M9.99817 14.1636H10.0065M8.84427 3.24L1.99019 15.0789C1.61002 15.7355 1.41994 16.0638 1.44803 16.3333C1.47254 16.5683 1.59568 16.7819 1.78681 16.9209C2.00594 17.0802 2.38533 17.0802 3.1441 17.0802H16.8522C17.611 17.0802 17.9904 17.0802 18.2095 16.9209C18.4007 16.7819 18.5238 16.5683 18.5483 16.3333C18.5764 16.0638 18.3863 15.7355 18.0061 15.0788L11.1521 3.24C10.7733 2.58569 10.5839 2.25854 10.3368 2.14867C10.1212 2.05282 9.87513 2.05282 9.65959 2.14867C9.41248 2.25854 9.22307 2.5857 8.84427 3.24Z" stroke="#FF3B30" stroke-width="1.66667" stroke-linecap="round" stroke-linejoin="round"/>
</svg>
