<svg width="288" height="70" viewBox="0 0 288 70" fill="none" xmlns="http://www.w3.org/2000/svg">
<path d="M18 38.2039C12 37.7993 6 33.4979 0 32.897V70H288V0L285 5.11352C282 10.227 276 20.4541 270 20.0961C264 19.7381 258 8.79509 252 7.18377C246 5.57245 240 13.2928 234 15.1865C228 17.0801 222 13.147 216 14.2807C210 15.4144 204 21.6149 198 23.6687C192 25.7226 186 23.6298 180 25.9216C174 28.2133 168 34.8897 162 37.2294C156 39.5692 150 37.5723 144 37.4852C138 37.3981 132 39.2207 126 36.623C120 34.0253 114 27.0073 108 25.0091C102 23.011 96 26.0327 90 27.5371C84 29.0416 78 29.0288 72 32.9859C66 36.9429 60 44.8698 54 45.3045C48 45.7392 42 38.6817 36 36.899C30 35.1164 24 38.6085 18 38.2039Z" fill="url(#paint0_linear_847_186)"/>
<path d="M1.14453 32.897C7.09691 33.4979 13.0493 37.7993 19.0017 38.2039C24.9541 38.6085 30.9064 35.1164 36.8588 36.899C42.8112 38.6817 48.7636 45.7392 54.716 45.3045C60.6683 44.8698 66.6207 36.9429 72.5731 32.9859C78.5255 29.0288 84.4779 29.0416 90.4302 27.5371C96.3826 26.0327 102.335 23.011 108.287 25.0091C114.24 27.0073 120.192 34.0253 126.145 36.623C132.097 39.2207 138.049 37.3981 144.002 37.4852C149.954 37.5723 155.906 39.5692 161.859 37.2294C167.811 34.8897 173.764 28.2133 179.716 25.9216C185.668 23.6298 191.621 25.7226 197.573 23.6687C203.525 21.6149 209.478 15.4144 215.43 14.2807C221.383 13.147 227.335 17.0801 233.287 15.1865C239.24 13.2928 245.192 5.57245 251.144 7.18377C257.097 8.79509 263.049 19.7381 269.002 20.0961C274.954 20.4541 280.906 10.227 283.883 5.11352L286.859 0" stroke="#18A0FB" stroke-width="2" stroke-linecap="round"/>
<defs>
<linearGradient id="paint0_linear_847_186" x1="144" y1="0" x2="144" y2="70" gradientUnits="userSpaceOnUse">
<stop stop-color="#18A0FB" stop-opacity="0.6"/>
<stop offset="1" stop-color="white" stop-opacity="0.1"/>
</linearGradient>
</defs>
</svg>
